<svg width="225" height="18" viewBox="0 0 225 18" fill="none" xmlns="http://www.w3.org/2000/svg">
<path d="M0 17.25V0.325H6.5C8.01667 0.325 9.28333 0.516667 10.3 0.9C11.3167 1.26667 12.0833 1.9 12.6 2.8C13.1167 3.68333 13.375 4.91667 13.375 6.5C13.375 8.08333 13.1167 9.34167 12.6 10.275C12.0833 11.2083 11.3167 11.8833 10.3 12.3C9.28333 12.7 8.01667 12.9 6.5 12.9H4.45V17.25H0ZM4.45 9.325H6.325C7.225 9.325 7.86667 9.1 8.25 8.65C8.65 8.2 8.85 7.49167 8.85 6.525C8.85 5.54167 8.65833 4.85833 8.275 4.475C7.89167 4.075 7.24167 3.875 6.325 3.875H4.45V9.325Z" fill="#0D621E"/>
<path d="M17.9688 17.25V4H13.8687V0.325H26.3688V4H22.4188V17.25H17.9688Z" fill="#0D621E"/>
<path d="M26.7287 17.25V13H31.1537V17.25H26.7287Z" fill="#0D621E"/>
<path d="M44.8934 17.55C44.16 17.55 43.385 17.5083 42.5684 17.425C41.7684 17.3417 41.0017 17.2417 40.2684 17.125C39.535 16.9917 38.9184 16.875 38.4184 16.775L38.6434 13.35C39.1767 13.4 39.7934 13.4667 40.4934 13.55C41.21 13.6333 41.9267 13.7083 42.6434 13.775C43.36 13.825 43.985 13.85 44.5184 13.85C45.285 13.85 45.8267 13.725 46.1434 13.475C46.4767 13.2083 46.6434 12.8083 46.6434 12.275C46.6434 11.975 46.5767 11.7417 46.4434 11.575C46.31 11.3917 46.0517 11.2417 45.6684 11.125C45.3017 10.9917 44.7684 10.8667 44.0684 10.75C42.635 10.5 41.4934 10.1833 40.6434 9.8C39.7934 9.41667 39.185 8.88333 38.8184 8.2C38.4517 7.5 38.2684 6.58333 38.2684 5.45C38.2684 4.01667 38.5184 2.90833 39.0184 2.125C39.535 1.34167 40.26 0.791668 41.1934 0.475001C42.1267 0.158334 43.235 0 44.5184 0C45.1184 0 45.7934 0.0333334 46.5434 0.1C47.31 0.166667 48.0517 0.241667 48.7684 0.325C49.5017 0.408334 50.135 0.500001 50.6684 0.600001L50.4934 4.1C49.9934 4.05 49.4017 4 48.7184 3.95C48.0517 3.88333 47.3767 3.825 46.6934 3.775C46.01 3.725 45.41 3.7 44.8934 3.7C44.1434 3.7 43.6017 3.8 43.2684 4C42.935 4.2 42.7684 4.525 42.7684 4.975C42.7684 5.30833 42.8434 5.575 42.9934 5.775C43.1434 5.95833 43.4017 6.11667 43.7684 6.25C44.1517 6.36667 44.6934 6.50833 45.3934 6.675C46.4767 6.90833 47.385 7.15 48.1184 7.4C48.8517 7.65 49.435 7.95833 49.8684 8.325C50.3184 8.69167 50.6434 9.16667 50.8434 9.75C51.0434 10.3167 51.1434 11.05 51.1434 11.95C51.1434 13.3167 50.9017 14.4167 50.4184 15.25C49.935 16.0667 49.2267 16.6583 48.2934 17.025C47.36 17.375 46.2267 17.55 44.8934 17.55Z" fill="#0D621E"/>
<path d="M52.9541 17.25V0.325H60.0791C61.2124 0.325 62.2124 0.458334 63.0791 0.725001C63.9458 0.991667 64.6208 1.43333 65.1041 2.05C65.6041 2.66667 65.8541 3.5 65.8541 4.55C65.8541 5.25 65.7958 5.84167 65.6791 6.325C65.5624 6.79167 65.3708 7.20833 65.1041 7.575C64.8374 7.925 64.4624 8.25 63.9791 8.55C64.4791 8.75 64.9041 9 65.2541 9.3C65.6041 9.6 65.8708 10 66.0541 10.5C66.2374 10.9833 66.3291 11.6417 66.3291 12.475C66.3291 13.4083 66.1708 14.1833 65.8541 14.8C65.5374 15.4167 65.0958 15.9083 64.5291 16.275C63.9791 16.625 63.3374 16.875 62.6041 17.025C61.8708 17.175 61.0874 17.25 60.2541 17.25H52.9541ZM57.4041 14.125H59.8791C60.3791 14.125 60.7874 14.075 61.1041 13.975C61.4208 13.8583 61.6541 13.65 61.8041 13.35C61.9708 13.05 62.0541 12.6333 62.0541 12.1C62.0541 11.7 61.9958 11.375 61.8791 11.125C61.7624 10.875 61.6041 10.6833 61.4041 10.55C61.2041 10.4167 60.9708 10.325 60.7041 10.275C60.4374 10.2083 60.1541 10.175 59.8541 10.175H57.4041V14.125ZM57.4041 7.225H59.8041C60.5041 7.225 61.0041 7.05833 61.3041 6.725C61.6041 6.39167 61.7541 5.89167 61.7541 5.225C61.7541 4.575 61.5874 4.10833 61.2541 3.825C60.9374 3.54167 60.4291 3.4 59.7291 3.4H57.4041V7.225Z" fill="#0D621E"/>
<path d="M74.6629 17.55C73.3129 17.55 72.1962 17.3917 71.3129 17.075C70.4296 16.7583 69.7296 16.2583 69.2129 15.575C68.6962 14.875 68.3296 13.9667 68.1129 12.85C67.8962 11.7333 67.7879 10.375 67.7879 8.775C67.7879 7.175 67.8962 5.825 68.1129 4.725C68.3296 3.60833 68.6962 2.70833 69.2129 2.025C69.7296 1.325 70.4379 0.816668 71.3379 0.500001C72.2546 0.166667 73.4129 0 74.8129 0C75.3296 0 75.8879 0.0333334 76.4879 0.1C77.1046 0.166667 77.7046 0.25 78.2879 0.35C78.8712 0.450001 79.3796 0.550001 79.8129 0.650001L79.6879 4.125C79.3879 4.075 78.9962 4.025 78.5129 3.975C78.0462 3.925 77.5629 3.88333 77.0629 3.85C76.5629 3.81667 76.0879 3.8 75.6379 3.8C74.9546 3.8 74.3879 3.88333 73.9379 4.05C73.5046 4.2 73.1629 4.46667 72.9129 4.85C72.6796 5.21667 72.5212 5.71667 72.4379 6.35C72.3546 6.98333 72.3129 7.79167 72.3129 8.775C72.3129 9.74167 72.3546 10.55 72.4379 11.2C72.5212 11.8333 72.6796 12.3417 72.9129 12.725C73.1629 13.0917 73.5046 13.3583 73.9379 13.525C74.3879 13.675 74.9629 13.75 75.6629 13.75C76.3296 13.75 77.0462 13.725 77.8129 13.675C78.5962 13.6083 79.2379 13.55 79.7379 13.5L79.8129 16.95C79.4296 17.0333 78.9546 17.125 78.3879 17.225C77.8212 17.325 77.2129 17.4 76.5629 17.45C75.9129 17.5167 75.2796 17.55 74.6629 17.55Z" fill="#0D621E"/>
<path d="M87.7156 17.55C86.9823 17.55 86.2073 17.5083 85.3906 17.425C84.5906 17.3417 83.824 17.2417 83.0906 17.125C82.3573 16.9917 81.7406 16.875 81.2406 16.775L81.4656 13.35C81.999 13.4 82.6156 13.4667 83.3156 13.55C84.0323 13.6333 84.749 13.7083 85.4656 13.775C86.1823 13.825 86.8073 13.85 87.3406 13.85C88.1073 13.85 88.649 13.725 88.9656 13.475C89.299 13.2083 89.4656 12.8083 89.4656 12.275C89.4656 11.975 89.399 11.7417 89.2656 11.575C89.1323 11.3917 88.874 11.2417 88.4906 11.125C88.124 10.9917 87.5906 10.8667 86.8906 10.75C85.4573 10.5 84.3156 10.1833 83.4656 9.8C82.6156 9.41667 82.0073 8.88333 81.6406 8.2C81.274 7.5 81.0906 6.58333 81.0906 5.45C81.0906 4.01667 81.3406 2.90833 81.8406 2.125C82.3573 1.34167 83.0823 0.791668 84.0156 0.475001C84.949 0.158334 86.0573 0 87.3406 0C87.9406 0 88.6156 0.0333334 89.3656 0.1C90.1323 0.166667 90.874 0.241667 91.5906 0.325C92.324 0.408334 92.9573 0.500001 93.4906 0.600001L93.3156 4.1C92.8156 4.05 92.224 4 91.5406 3.95C90.874 3.88333 90.199 3.825 89.5156 3.775C88.8323 3.725 88.2323 3.7 87.7156 3.7C86.9656 3.7 86.424 3.8 86.0906 4C85.7573 4.2 85.5906 4.525 85.5906 4.975C85.5906 5.30833 85.6656 5.575 85.8156 5.775C85.9656 5.95833 86.224 6.11667 86.5906 6.25C86.974 6.36667 87.5156 6.50833 88.2156 6.675C89.299 6.90833 90.2073 7.15 90.9406 7.4C91.674 7.65 92.2573 7.95833 92.6906 8.325C93.1406 8.69167 93.4656 9.16667 93.6656 9.75C93.8656 10.3167 93.9656 11.05 93.9656 11.95C93.9656 13.3167 93.724 14.4167 93.2406 15.25C92.7573 16.0667 92.049 16.6583 91.1156 17.025C90.1823 17.375 89.049 17.55 87.7156 17.55Z" fill="#0D621E"/>
<path d="M101.196 17.25V0.325H105.646V17.25H101.196Z" fill="#0D621E"/>
<path d="M108.105 17.25V0.325H113.105L117.905 9.925H118.305V0.325H122.755V17.25H117.755L112.98 7.35H112.555V17.25H108.105Z" fill="#0D621E"/>
<path d="M125.195 17.25V0.325H131.945C133.329 0.325 134.504 0.500001 135.47 0.850001C136.437 1.2 137.212 1.725 137.795 2.425C138.395 3.10833 138.829 3.96667 139.095 5C139.362 6.01667 139.495 7.19167 139.495 8.525C139.495 9.875 139.37 11.0833 139.12 12.15C138.87 13.2167 138.462 14.1333 137.895 14.9C137.329 15.6667 136.57 16.25 135.62 16.65C134.67 17.05 133.504 17.25 132.12 17.25H125.195ZM129.645 13.575H131.795C132.495 13.575 133.054 13.45 133.47 13.2C133.904 12.95 134.229 12.6 134.445 12.15C134.662 11.7 134.804 11.1667 134.87 10.55C134.937 9.93333 134.97 9.25833 134.97 8.525C134.97 7.825 134.929 7.2 134.845 6.65C134.762 6.08333 134.612 5.6 134.395 5.2C134.179 4.8 133.862 4.5 133.445 4.3C133.029 4.1 132.479 4 131.795 4H129.645V13.575Z" fill="#0D621E"/>
<path d="M148.555 17.55C146.738 17.55 145.272 17.2417 144.155 16.625C143.055 15.9917 142.247 15.0333 141.73 13.75C141.23 12.45 140.98 10.8083 140.98 8.825C140.98 6.825 141.23 5.175 141.73 3.875C142.23 2.575 143.038 1.60833 144.155 0.975001C145.272 0.325 146.738 0 148.555 0C150.388 0 151.855 0.325 152.955 0.975001C154.072 1.60833 154.88 2.575 155.38 3.875C155.88 5.175 156.13 6.825 156.13 8.825C156.13 10.825 155.88 12.475 155.38 13.775C154.88 15.0583 154.08 16.0083 152.98 16.625C151.88 17.2417 150.405 17.55 148.555 17.55ZM148.555 13.875C149.438 13.875 150.097 13.6917 150.53 13.325C150.963 12.9417 151.255 12.375 151.405 11.625C151.555 10.8583 151.63 9.925 151.63 8.825C151.63 7.70833 151.555 6.76667 151.405 6C151.255 5.23333 150.963 4.65833 150.53 4.275C150.097 3.875 149.438 3.675 148.555 3.675C147.705 3.675 147.055 3.875 146.605 4.275C146.172 4.65833 145.88 5.23333 145.73 6C145.58 6.76667 145.505 7.70833 145.505 8.825C145.505 9.90833 145.58 10.8333 145.73 11.6C145.88 12.35 146.172 12.9167 146.605 13.3C147.038 13.6833 147.688 13.875 148.555 13.875Z" fill="#0D621E"/>
<path d="M158.105 17.25V0.325H163.105L167.905 9.925H168.305V0.325H172.755V17.25H167.755L162.98 7.35H162.555V17.25H158.105Z" fill="#0D621E"/>
<path d="M175.195 17.25V0.325H187.045V3.925H179.645V6.925H185.545V10.5H179.645V13.625H187.045V17.25H175.195Z" fill="#0D621E"/>
<path d="M194.991 17.55C194.258 17.55 193.483 17.5083 192.666 17.425C191.866 17.3417 191.099 17.2417 190.366 17.125C189.633 16.9917 189.016 16.875 188.516 16.775L188.741 13.35C189.274 13.4 189.891 13.4667 190.591 13.55C191.308 13.6333 192.024 13.7083 192.741 13.775C193.458 13.825 194.083 13.85 194.616 13.85C195.383 13.85 195.924 13.725 196.241 13.475C196.574 13.2083 196.741 12.8083 196.741 12.275C196.741 11.975 196.674 11.7417 196.541 11.575C196.408 11.3917 196.149 11.2417 195.766 11.125C195.399 10.9917 194.866 10.8667 194.166 10.75C192.733 10.5 191.591 10.1833 190.741 9.8C189.891 9.41667 189.283 8.88333 188.916 8.2C188.549 7.5 188.366 6.58333 188.366 5.45C188.366 4.01667 188.616 2.90833 189.116 2.125C189.633 1.34167 190.358 0.791668 191.291 0.475001C192.224 0.158334 193.333 0 194.616 0C195.216 0 195.891 0.0333334 196.641 0.1C197.408 0.166667 198.149 0.241667 198.866 0.325C199.599 0.408334 200.233 0.500001 200.766 0.600001L200.591 4.1C200.091 4.05 199.499 4 198.816 3.95C198.149 3.88333 197.474 3.825 196.791 3.775C196.108 3.725 195.508 3.7 194.991 3.7C194.241 3.7 193.699 3.8 193.366 4C193.033 4.2 192.866 4.525 192.866 4.975C192.866 5.30833 192.941 5.575 193.091 5.775C193.241 5.95833 193.499 6.11667 193.866 6.25C194.249 6.36667 194.791 6.50833 195.491 6.675C196.574 6.90833 197.483 7.15 198.216 7.4C198.949 7.65 199.533 7.95833 199.966 8.325C200.416 8.69167 200.741 9.16667 200.941 9.75C201.141 10.3167 201.241 11.05 201.241 11.95C201.241 13.3167 200.999 14.4167 200.516 15.25C200.033 16.0667 199.324 16.6583 198.391 17.025C197.458 17.375 196.324 17.55 194.991 17.55Z" fill="#0D621E"/>
<path d="M203.052 17.25V0.325H207.502V17.25H203.052Z" fill="#0D621E"/>
<path d="M208.861 17.25L212.936 0.325H220.111L224.211 17.25H219.736L218.986 14.45H213.936L213.236 17.25H208.861ZM214.561 10.975H218.461L216.961 3.85H216.111L214.561 10.975Z" fill="#0D621E"/>
</svg>
