<svg id="Layer_1" data-name="Layer 1" xmlns="http://www.w3.org/2000/svg" xmlns:xlink="http://www.w3.org/1999/xlink" viewBox="0 0 394 456"><defs><style>.cls-1,.cls-10,.cls-15,.cls-16,.cls-18{fill:none;}.cls-2{fill:#ffd200;}.cls-13,.cls-3{fill:#fff;}.cls-4{clip-path:url(#clip-path);}.cls-5{fill:#202e45;}.cls-14,.cls-17,.cls-18,.cls-5,.cls-7{stroke:#000;}.cls-10,.cls-13,.cls-14,.cls-19,.cls-5,.cls-6{stroke-miterlimit:10;}.cls-6{fill:#5290da;}.cls-10,.cls-13,.cls-15,.cls-16,.cls-19,.cls-6{stroke:#231f20;}.cls-17,.cls-7{fill:#f4decc;}.cls-15,.cls-16,.cls-17,.cls-18,.cls-7{stroke-linejoin:round;}.cls-8{fill:#231f20;}.cls-14,.cls-9{fill:#414042;}.cls-11{fill:#39393a;}.cls-12{fill:#e89ec0;}.cls-15,.cls-17,.cls-18{stroke-linecap:round;}.cls-17,.cls-18{stroke-width:0.88px;}.cls-19{fill:#ff4e00;}.cls-20{fill:#f9d83e;}.cls-21{fill:#ff715a;}</style><clipPath id="clip-path"><circle class="cls-1" cx="197" cy="228" r="179.81"/></clipPath></defs><circle class="cls-2" cx="197" cy="228" r="179.81"/><circle class="cls-3" cx="261.08" cy="309.86" r="1.48"/><circle class="cls-3" cx="267.31" cy="304.89" r="2.2"/><circle class="cls-3" cx="273.54" cy="299.92" r="2.92"/><circle class="cls-3" cx="279.78" cy="294.95" r="3.64"/><circle class="cls-3" cx="257.84" cy="307.88" r="1.48"/><circle class="cls-3" cx="259.42" cy="300.07" r="2.2"/><circle class="cls-3" cx="261" cy="292.25" r="2.92"/><circle class="cls-3" cx="262.58" cy="284.44" r="3.64"/><circle class="cls-3" cx="254.09" cy="308.45" r="1.48"/><circle class="cls-3" cx="250.27" cy="301.45" r="2.2"/><circle class="cls-3" cx="246.46" cy="294.45" r="2.92"/><circle class="cls-3" cx="242.64" cy="287.44" r="3.64"/><circle class="cls-3" cx="251.57" cy="311.3" r="1.48"/><circle class="cls-3" cx="244.15" cy="308.38" r="2.2"/><circle class="cls-3" cx="236.73" cy="305.47" r="2.92"/><circle class="cls-3" cx="229.31" cy="302.56" r="3.64"/><circle class="cls-3" cx="251.48" cy="315.09" r="1.48"/><circle class="cls-3" cx="243.92" cy="317.63" r="2.2"/><circle class="cls-3" cx="236.36" cy="320.17" r="2.92"/><circle class="cls-3" cx="228.8" cy="322.71" r="3.64"/><circle class="cls-3" cx="253.85" cy="318.06" r="1.48"/><circle class="cls-3" cx="249.69" cy="324.86" r="2.2"/><circle class="cls-3" cx="245.53" cy="331.67" r="2.92"/><circle class="cls-3" cx="241.37" cy="338.47" r="3.64"/><circle class="cls-3" cx="257.57" cy="318.81" r="1.48"/><circle class="cls-3" cx="258.76" cy="326.69" r="2.2"/><circle class="cls-3" cx="259.94" cy="334.58" r="2.92"/><circle class="cls-3" cx="261.13" cy="342.46" r="3.64"/><circle class="cls-3" cx="260.9" cy="316.99" r="1.48"/><circle class="cls-3" cx="266.88" cy="322.27" r="2.2"/><circle class="cls-3" cx="272.86" cy="327.54" r="2.92"/><circle class="cls-3" cx="278.84" cy="332.82" r="3.64"/><circle class="cls-3" cx="262.29" cy="313.46" r="1.48"/><circle class="cls-3" cx="270.26" cy="313.66" r="2.2"/><circle class="cls-3" cx="278.23" cy="313.86" r="2.92"/><circle class="cls-3" cx="286.2" cy="314.05" r="3.64"/><g class="cls-4"><path class="cls-5" d="M232.64,288.8c-14.33,7.92-26.3,11-36,11.47-9.69-.48-21.67-3.55-36-11.47,0,0-3.39,30.87-.1,42.41s8.37,40.88,8.37,73.35c0,35.72,2.21,85.94,2.21,85.94h21.24s-.77-48.62-1.11-82.21,1-80.64,1-80.64l4.24.22v0h.23v0l4.24-.22s1.36,47.05,1,80.64-1.11,82.21-1.11,82.21h21.24s2.21-50.22,2.21-85.94c0-32.47,5.08-61.81,8.38-73.35S232.64,288.8,232.64,288.8Z"/><path class="cls-3" d="M165.27,294.57s8.16,8.75,31.2,7,33.23-4.08,33.23-4.08l5.54-75.81s-13.7-32.94-19-34.4-4.66-2-16-.87S176.64,192,176.64,192,147.49,254.63,165.27,294.57Z"/><path class="cls-6" d="M184.31,177.72l-21.29,7s-8.19,15.11-15.57,55.22c-4.9,26.64-3.79,47.79-2.48,59a11.56,11.56,0,0,0,9.72,10.1l22.86,3.58s-6.71-67.31,1.58-95.69,11.37-33.38,11.37-33.38Z"/><path class="cls-6" d="M204.92,176.2l25.35,9S238.56,199.87,246,240c4.9,26.64,3.79,47.79,2.48,59a11.56,11.56,0,0,1-9.72,10.1l-22.87,3.58s6.72-67.31-1.57-95.69-11.38-33.38-11.38-33.38Z"/><path class="cls-7" d="M164.3,117.5s-5.64,43.15,10.3,54.62c0,0,10.11,3.21,11.08,14.29,0,0,.19,8.35,9.33,6.8s9.13-5.25,10.11-8.16.38-9.24,6-13.32,9.14-13.41,9.14-36-3.89-29-3.89-29-31.49-3.49-33.43-2.52S164.3,117.5,164.3,117.5Z"/><path class="cls-8" d="M206.32,138.55a2,2,0,1,1-2-2.21,2.11,2.11,0,0,1,2,2.21"/><path class="cls-8" d="M183.38,138.16a2.11,2.11,0,1,1-2.09-2.34,2.23,2.23,0,0,1,2.09,2.34"/><path class="cls-9" d="M197.81,123.22c4.07-.64,14.93-1.52,17.72,5.18,0,0-3.69-1.45-5-1.76-3.13-.75-12.74-1.68-12.74-1.68a.88.88,0,0,1,0-1.74"/><path class="cls-10" d="M197.81,123.22c4.07-.64,14.93-1.52,17.72,5.18,0,0-3.69-1.45-5-1.76-3.13-.75-12.74-1.68-12.74-1.68A.88.88,0,0,1,197.81,123.22Z"/><path class="cls-9" d="M187.78,123.22c-4.07-.64-14.93-1.52-17.72,5.18,0,0,3.42-1.16,4.59-1.43,3.24-.75,13.12-2,13.12-2a.88.88,0,0,0,0-1.74"/><path class="cls-10" d="M187.78,123.22c-4.07-.64-14.93-1.52-17.72,5.18,0,0,3.42-1.16,4.59-1.43,3.24-.75,13.12-2,13.12-2A.88.88,0,0,0,187.78,123.22Z"/><path class="cls-10" d="M190.59,144.44s-4.44,5.47,4.24,2.64"/><path class="cls-11" d="M181.59,152.05a65.17,65.17,0,0,0,24.32-.38.85.85,0,0,1,.92,1.23c-5.66,10.87-10,14.39-16.13,12.79-5-1.33-8.71-9.2-10-12.49a.85.85,0,0,1,.93-1.15"/><path class="cls-10" d="M181.59,152.05a65.17,65.17,0,0,0,24.32-.38.85.85,0,0,1,.92,1.23c-5.66,10.87-10,14.39-16.13,12.79-5-1.33-8.71-9.2-10-12.49A.85.85,0,0,1,181.59,152.05Z"/><path class="cls-12" d="M183.74,159.32s.67-6.39,6.25-6.37,15.92-1.28,15.92-1.28,1.8.47-1,4.7-7.53,10-10.88,9.65-7.23-.58-10.3-6.7"/><path class="cls-10" d="M183.74,159.32s.67-6.39,6.25-6.37,15.92-1.28,15.92-1.28,1.8.47-1,4.7-7.53,10-10.88,9.65S186.81,165.44,183.74,159.32Z"/><path class="cls-13" d="M181.14,152.25s-.35,5.24,6.33,5.29a100.22,100.22,0,0,0,15.61-1.62,4,4,0,0,0,3.1-1.64c1-1.63.41-2.46.41-2.46s-9.81,1.2-13.66,1.18S181.14,152.25,181.14,152.25Z"/><path class="cls-7" d="M220.52,134.8s1.41-8.38,5.64-5.61,3.06,16.91-.73,19.24a17.74,17.74,0,0,1-7.51,2.55"/><path class="cls-14" d="M163.81,132s-5.93-5.78-6.12-11.22a42.14,42.14,0,0,1,.78-9.72s-12.83-11.27-7-11.47,5.44,1.56,4.08-4.47S152.44,82.32,156.91,80s9.92,8.55,26.05,5.06,28.57-6.61,36.73,1,5.64,17.3,6.22,17.3,3.31,6.22,2.53,14.38a29.9,29.9,0,0,1-5.83,14.38l-2.33,3.69s.77-13.8-2.14-18.85-6.8-6.41-10.89-4.08-2.52,5.25-6.8,2.14c0,0-.49,3.35-2.23.73s-6-4.23-6-4.23-9,5.25-11.52,2.33-2.18-3.64-7.14-1-7.29,2.77-7.29,2.77a10,10,0,0,0-2.48,6C163.52,125.33,163.81,132,163.81,132Z"/><path class="cls-15" d="M226,136.68s-3-.73-4.12,4,3.3,5.43,3.13,3-.49-2.82-.49-2.82"/><path class="cls-7" d="M164.08,134.8s-1.41-8.38-5.64-5.61-3.06,16.91.73,19.24a17.74,17.74,0,0,0,7.51,2.55"/><path class="cls-15" d="M158.62,136.68s3-.73,4.11,4-3.29,5.43-3.12,3,.49-2.82.49-2.82"/><polyline class="cls-16" points="176.12 219.09 167.49 200.9 179.31 184.25"/><polyline class="cls-16" points="217.27 219.09 225.91 200.9 214.08 184.25"/><path class="cls-17" d="M154.56,241.57c-.13-.38-1.28-13.3-1.28-13.3s6.65-3.45,12.66-7.41,7.28-5.63,10-7.8,6.26-5.24,7.67-4.73,1.28-1.79,3.84.38,5.24,3.71,5.88,6.52,1.15,5.12-.39,5,0,2.43-1.92,1.79-1.78.64-3.57-2.17-3.2-3.58-7.16,1.91-5.89,10.1-.26,11.64,11,1.53,11.25,4.73-4.47,1.15-10.23,2-10.16-1.39-15.4-.24A99.78,99.78,0,0,1,154.56,241.57Z"/><path class="cls-18" d="M170.28,230.06c-.12.39-.25,4.61-8.82,8.06"/><path class="cls-18" d="M176.93,218.39a32.09,32.09,0,0,1,6.22-2.73c2.65-.68,4.61.85,6.14.25s2.47-1.53,1-2.55-3.41-2.3-5.62-2.3-6.05,1.7-6.05,1.7"/><path class="cls-18" d="M192.27,220.09a21,21,0,0,1-3.66-3.92"/><path class="cls-17" d="M238.18,241.57c.13-.38,1.28-13.3,1.28-13.3s-6.65-3.45-12.66-7.41-7.28-5.63-10-7.8-6.26-5.24-7.67-4.73-1.28-1.79-3.83.38-5.25,3.71-5.89,6.52-1.15,5.12.39,5,0,2.43,1.92,1.79,1.79.64,3.58-2.17,3.19-3.58,7.15,1.91,5.89,10.1.26,11.64-11,1.53-11.25,4.73,4.47,1.15,10.23,2,10.16-1.39,15.4-.24A99.78,99.78,0,0,0,238.18,241.57Z"/><path class="cls-18" d="M222.46,230.06c.12.39.25,4.61,8.82,8.06"/><path class="cls-18" d="M215.81,218.39a32.09,32.09,0,0,0-6.22-2.73c-2.65-.68-4.61.85-6.14.25s-2.47-1.53-1-2.55,3.41-2.3,5.62-2.3,6,1.7,6,1.7"/><path class="cls-18" d="M200.47,220.09a21,21,0,0,0,3.66-3.92"/><path class="cls-6" d="M165.76,184.07c-17.28,5-24.71,23-48.81,41.31s-19.82,46.26-4.28,41.2,45.1-17.1,45.1-17.1l-1.56-29.93"/><path class="cls-6" d="M228.24,184.07c17.28,5,24.71,23,48.81,41.31s19.82,46.26,4.28,41.2-45.1-17.1-45.1-17.1l1.56-29.93"/><path class="cls-19" d="M206,222.85c-3.43-3.43-9.62,3.35-9.62,3.35s-.16.13,0,0-6.19-6.78-9.62-3.35c-9.22,9.22,9.6,16.58,9.64,16.56S215.84,232.73,206,222.85Z"/></g><circle class="cls-3" cx="115.23" cy="161.12" r="1.48"/><circle class="cls-3" cx="121.47" cy="156.14" r="2.2"/><circle class="cls-3" cx="127.7" cy="151.17" r="2.92"/><circle class="cls-3" cx="133.93" cy="146.2" r="3.64"/><circle class="cls-3" cx="111.99" cy="159.14" r="1.48"/><circle class="cls-3" cx="113.57" cy="151.32" r="2.2"/><circle class="cls-3" cx="115.15" cy="143.51" r="2.92"/><circle class="cls-3" cx="116.73" cy="135.69" r="3.64"/><circle class="cls-3" cx="108.24" cy="159.7" r="1.48"/><circle class="cls-3" cx="104.43" cy="152.7" r="2.2"/><circle class="cls-3" cx="100.61" cy="145.7" r="2.92"/><circle class="cls-3" cx="96.8" cy="138.7" r="3.64"/><circle class="cls-3" cx="105.73" cy="162.55" r="1.48"/><circle class="cls-3" cx="98.31" cy="159.64" r="2.2"/><circle class="cls-3" cx="90.88" cy="156.72" r="2.92"/><circle class="cls-3" cx="83.46" cy="153.81" r="3.64"/><circle class="cls-3" cx="105.63" cy="166.34" r="1.48"/><circle class="cls-3" cx="98.08" cy="168.88" r="2.2"/><circle class="cls-3" cx="90.52" cy="171.42" r="2.92"/><circle class="cls-3" cx="82.96" cy="173.96" r="3.64"/><circle class="cls-3" cx="108" cy="169.31" r="1.48"/><circle class="cls-3" cx="103.84" cy="176.12" r="2.2"/><circle class="cls-3" cx="99.69" cy="182.92" r="2.92"/><circle class="cls-3" cx="95.53" cy="189.72" r="3.64"/><circle class="cls-3" cx="111.72" cy="170.06" r="1.48"/><circle class="cls-3" cx="112.91" cy="177.95" r="2.2"/><circle class="cls-3" cx="114.1" cy="185.83" r="2.92"/><circle class="cls-3" cx="115.29" cy="193.72" r="3.64"/><circle class="cls-3" cx="115.05" cy="168.25" r="1.48"/><circle class="cls-3" cx="121.03" cy="173.52" r="2.2"/><circle class="cls-3" cx="127.01" cy="178.8" r="2.92"/><circle class="cls-3" cx="132.99" cy="184.07" r="3.64"/><circle class="cls-3" cx="116.44" cy="164.71" r="1.48"/><circle class="cls-3" cx="124.41" cy="164.91" r="2.2"/><circle class="cls-3" cx="132.38" cy="165.11" r="2.92"/><circle class="cls-3" cx="140.35" cy="165.31" r="3.64"/><path class="cls-3" d="M324.76,271.49l-.88-.48-.89-.48c-4.34,6.42-9.63,3.16-9.63,3.16l-.48.89-.48.88s5.61,2.67,2.6,9.81l.88.48.88.48c4.35-6.42,9.64-3.17,9.64-3.17l.48-.89.48-.88S321.75,278.63,324.76,271.49Z"/><path class="cls-3" d="M79.28,251.92l-.5.25-.5.24c1.49,4-1.69,5.37-1.69,5.37l.25.5.24.5s3-1.67,5.26,2l.5-.24.5-.24c-1.49-4,1.69-5.37,1.69-5.37l-.25-.5-.24-.5S81.53,255.59,79.28,251.92Z"/><path class="cls-3" d="M259.82,128.11l-.34-.21-.34-.22c-1.91,2.45-3.93,1-3.93,1L255,129l-.22.34s2.17,1.21.78,4l.34.22.34.21c1.9-2.44,3.93-1,3.93-1l.21-.34.22-.34S258.42,130.88,259.82,128.11Z"/><path class="cls-20" d="M53.69,332.83a.49.49,0,0,1-.49-.54l.65-7.82a.47.47,0,0,1,.2-.36c.06-.05,6.31-4.67,6.87-11.83.37-4.84-1.88-9.74-6.71-14.56-22.12-22.13-37.11-58-20.72-88.34,4.89-9,9.24-22.71,2.19-36.42A37.13,37.13,0,0,0,25,160.29a.49.49,0,0,1-.22-.38.49.49,0,0,1,.18-.41L31,154.29a.49.49,0,0,1,.32-.12.54.54,0,0,1,.25.06c.25.14,25.6,14.8,6.06,54.09C20.25,243.29,35.72,277,56,296.79c6.13,6,9,12.25,8.5,18.59C63.69,325.7,54.38,332.46,54,332.74A.48.48,0,0,1,53.69,332.83Z"/><path d="M31.32,154.67s25.41,14.11,5.87,53.43c-17.74,35.67-1.52,69.5,18.46,89s-2,35.18-2,35.18l.66-7.82s15.85-11.51.21-27.15c-19.54-19.54-38-55.6-20.63-87.74s-8.69-49.74-8.69-49.74l6.08-5.21m0-1a1,1,0,0,0-.65.24l-6.08,5.21a1,1,0,0,0,.09,1.59,36.44,36.44,0,0,1,10.57,12.52c5.56,10.84,4.82,22.92-2.2,35.91-7.93,14.67-9.17,31.74-3.6,49.37,4.44,14.07,13.34,28.49,24.41,39.56,4.71,4.72,6.92,9.48,6.56,14.16-.54,6.93-6.6,11.43-6.66,11.47a1,1,0,0,0-.41.73l-.65,7.82a1,1,0,0,0,.5.95,1,1,0,0,0,.49.13,1,1,0,0,0,.58-.18c.41-.29,9.9-7.18,10.72-17.73.51-6.49-2.4-12.88-8.64-19-20.16-19.71-35.54-53.16-18.27-87.89,5.67-11.4,11-28,4.41-42.32a28.36,28.36,0,0,0-10.68-12.43,1,1,0,0,0-.49-.12Z"/><path class="cls-20" d="M58.69,342.45a.54.54,0,0,1-.22-.05c-1.79-.88-3.62-1.8-5.43-2.75a.49.49,0,0,1-.25-.34.51.51,0,0,1,.09-.41c2.92-3.71,10.1-14.54,13.76-35.06a.54.54,0,0,1,.36-.4l5.31-1.52c.34-.1.69-.19,1-.26h.11a.53.53,0,0,1,.34.13.49.49,0,0,1,.15.44c-3.6,25.19-13,37.78-14.87,40A.49.49,0,0,1,58.69,342.45Z"/><path d="M73.45,302.15h0m0,0c-3.54,24.79-12.61,37.16-14.76,39.8-1.88-.92-3.68-1.84-5.41-2.74,2.73-3.47,10.14-14.46,13.86-35.29l5.31-1.52c.33-.1.66-.18,1-.25m0-1h0a.58.58,0,0,0-.19,0c-.36.07-.71.16-1,.26L66.86,303a1,1,0,0,0-.71.79c-3.64,20.41-10.76,31.16-13.66,34.84a1,1,0,0,0-.19.83,1,1,0,0,0,.51.67c1.81,1,3.64,1.88,5.44,2.76a1.13,1.13,0,0,0,.44.1,1,1,0,0,0,.77-.37c2.62-3.21,11.43-15.58,15-40.22a1.49,1.49,0,0,0,0-.21,1,1,0,0,0-1-1Zm0,2Z"/><path class="cls-20" d="M38.8,331.41a.54.54,0,0,1-.27-.07c-1.63-1-3.19-2-4.62-3a.5.5,0,0,1-.22-.43v-.27c0-.21,0-.43,0-.65a.57.57,0,0,1,.11-.28A62,62,0,0,0,42.25,311a.46.46,0,0,1,.24-.27,14.8,14.8,0,0,1,2.47-1l4.54-1.31.14,0a.5.5,0,0,1,.48.65C46,322.39,40.7,329.4,39.18,331.23A.49.49,0,0,1,38.8,331.41Z"/><path d="M49.64,309h0m0,0c-4.14,13.21-9.38,20.19-10.84,22-1.9-1.18-3.45-2.19-4.61-3,0-.31,0-.61,0-.92a62.32,62.32,0,0,0,8.5-15.84,13.3,13.3,0,0,1,2.39-.93L49.64,309m0-1h0a1,1,0,0,0-.25.05l-4.52,1.29a16.2,16.2,0,0,0-2.55,1,1,1,0,0,0-.49.54,61,61,0,0,1-8.36,15.59,1,1,0,0,0-.21.57c0,.22,0,.45,0,.67v.26a1,1,0,0,0,.45.86c1.44,1,3,2,4.63,3a1,1,0,0,0,.53.15,1,1,0,0,0,.77-.36c1.52-1.85,6.82-8.91,11-22.23a.94.94,0,0,0,.07-.37,1,1,0,0,0-1-1Zm0,2h0Z"/><path class="cls-20" d="M45.29,335.31a.43.43,0,0,1-.25-.07c-1.76-1-3.52-2.06-5.23-3.11a.49.49,0,0,1-.12-.74c1.59-1.92,7.08-9.23,11.23-23.09a.52.52,0,0,1,.34-.34l6.4-1.83.14,0a.5.5,0,0,1,.48.62c-4.19,17.12-10.71,26.06-12.61,28.39A.49.49,0,0,1,45.29,335.31Z"/><path d="M57.8,306.61h0m0,0c-4.18,17-10.68,25.94-12.51,28.2-1.92-1.11-3.66-2.15-5.21-3.1,1.8-2.18,7.19-9.48,11.32-23.26l6.4-1.84m0-1h0a1,1,0,0,0-.25,0l-6.37,1.83a1,1,0,0,0-.69.68c-4.12,13.76-9.56,21-11.13,22.91a1,1,0,0,0-.22.8,1,1,0,0,0,.46.69c1.7,1,3.46,2.09,5.24,3.11a.88.88,0,0,0,.5.14,1,1,0,0,0,.77-.37c1.91-2.35,8.47-11.36,12.69-28.53a1,1,0,0,0,0-.3,1,1,0,0,0-1-1Zm0,2Z"/><path class="cls-20" d="M80.3,351.39a.41.41,0,0,1-.16,0c-2-.68-4.16-1.44-6.27-2.24a.5.5,0,0,1-.3-.35.52.52,0,0,1,.1-.45c1.84-2.15,11.23-14.18,15-39.46a.49.49,0,0,1,.37-.41l.13,0a.51.51,0,0,1,.39.19,47.87,47.87,0,0,1,5,7.81.5.5,0,0,1,0,.32c-4.17,21.17-12.22,31.7-13.93,33.75l0,0a.49.49,0,0,1,.08.62A.48.48,0,0,1,80.3,351.39Z"/><path d="M89.16,308.93a47.17,47.17,0,0,1,4.9,7.72c-4.63,23.49-14,33.77-14.13,33.89l.37.35q-3.18-1.06-6.25-2.24c2-2.37,11.34-14.42,15.11-39.72m0-1a1.09,1.09,0,0,0-.26,0,1,1,0,0,0-.73.82c-3.75,25.16-13,37.08-14.88,39.22a1,1,0,0,0,.4,1.58c2.13.81,4.25,1.57,6.29,2.25a.87.87,0,0,0,.32.06,1,1,0,0,0,.85-.49,1,1,0,0,0,.08-.86C83.39,347.87,91,337.26,95,316.85a1,1,0,0,0-.09-.65,47.93,47.93,0,0,0-5-7.89,1,1,0,0,0-.78-.38Z"/><path class="cls-20" d="M72.62,348.6l-.16,0c-1.84-.72-3.73-1.5-5.62-2.32a.5.5,0,0,1-.29-.34.48.48,0,0,1,.1-.43c2.74-3.35,11.91-16.29,15.14-42.49a.49.49,0,0,1,.25-.37.43.43,0,0,1,.25-.07.79.79,0,0,1,.2,0,14.68,14.68,0,0,1,4.93,3.53c.26.28.51.56.76.85l.07.09a.47.47,0,0,1,.12.39c-3.78,26.92-14,39.37-15.28,40.81a.41.41,0,0,1,0,.09A.51.51,0,0,1,72.62,348.6Z"/><path d="M82.28,303.05a14.37,14.37,0,0,1,4.78,3.41c.28.3.54.61.81.92-4,28.31-15.15,40.54-15.27,40.68l.05,0c-1.91-.74-3.78-1.52-5.61-2.31,2.65-3.24,12-16.3,15.24-42.74m0-1a1.05,1.05,0,0,0-.49.13,1,1,0,0,0-.5.75C78.08,329,69,341.84,66.26,345.16a1,1,0,0,0,.38,1.55c1.88.81,3.78,1.59,5.64,2.33a1.15,1.15,0,0,0,.37.06,1,1,0,0,0,.84-.46,1.24,1.24,0,0,0,.1-.2c1.73-2,11.6-14.69,15.27-40.92a1,1,0,0,0-.23-.79l-.08-.09c-.25-.29-.5-.58-.76-.86a15,15,0,0,0-5.1-3.64,1,1,0,0,0-.41-.09Z"/><path class="cls-20" d="M87.26,353.51h-.13c-2-.54-4-1.15-6-1.81a.51.51,0,0,1-.33-.34.52.52,0,0,1,.11-.46c1.53-1.77,9.38-11.61,13.72-32.1a.5.5,0,0,1,.44-.39h0a.49.49,0,0,1,.45.29,64.7,64.7,0,0,1,3.72,10.71.5.5,0,0,1,0,.27c-4.87,16.19-11.4,23.38-11.67,23.68A.49.49,0,0,1,87.26,353.51Z"/><path d="M95.14,318.9a65,65,0,0,1,3.69,10.63C94,345.58,87.44,352.82,87.26,353c-2-.55-4-1.15-6-1.79,1.67-1.92,9.49-11.8,13.84-32.32m0-1H95a1,1,0,0,0-.87.79c-4.32,20.37-12.1,30.12-13.61,31.87a1,1,0,0,0,.44,1.61c2,.66,4,1.26,6,1.81l.27,0a1,1,0,0,0,.73-.32c.28-.3,6.89-7.57,11.79-23.87a.9.9,0,0,0,0-.54,66.73,66.73,0,0,0-3.74-10.8,1,1,0,0,0-.91-.58Z"/><path class="cls-20" d="M51.93,339a.46.46,0,0,1-.23-.06C49.91,338,48.11,337,46.35,336a.49.49,0,0,1-.25-.34.56.56,0,0,1,.11-.41C48.16,332.85,54.86,323.66,59,306a.53.53,0,0,1,.35-.36l6.07-1.74a.3.3,0,0,1,.13,0,.49.49,0,0,1,.49.59C62.18,325.05,54.57,336,52.33,338.81A.53.53,0,0,1,51.93,339Z"/><path d="M65.53,304.39h0m0,0c-3.8,20.33-11.21,31.08-13.6,34.11q-2.82-1.51-5.33-2.94c2.2-2.7,8.76-11.88,12.87-29.43l6.06-1.74m0-1h0a1.09,1.09,0,0,0-.26,0l-6,1.74a1,1,0,0,0-.7.73c-4.11,17.53-10.74,26.65-12.68,29a1,1,0,0,0-.21.81,1.06,1.06,0,0,0,.49.69c1.78,1,3.58,2,5.36,2.95a1,1,0,0,0,.47.12,1,1,0,0,0,.79-.38c2.26-2.88,9.91-13.84,13.78-34.48a1.09,1.09,0,0,0,0-.25,1,1,0,0,0-1-1Zm0,2h0Z"/><path class="cls-20" d="M59.26,363.39a22.45,22.45,0,0,1-20.39-13.17.51.51,0,0,1,.13-.59.49.49,0,0,1,.59,0,122.41,122.41,0,0,0,25.7,12.08.51.51,0,0,1,.34.51.5.5,0,0,1-.4.45l-.48.1c-.45.09-.9.19-1.36.27a22.05,22.05,0,0,1-4.13.39Z"/><path d="M39.33,350a123,123,0,0,0,25.8,12.13l-1.83.37a22.26,22.26,0,0,1-4,.38A21.92,21.92,0,0,1,39.33,350m0-1a1,1,0,0,0-.66.25,1,1,0,0,0-.25,1.17,23,23,0,0,0,20.84,13.46,22.36,22.36,0,0,0,4.23-.4l1.41-.28.43-.09a1,1,0,0,0,.12-1.92,121.4,121.4,0,0,1-25.59-12,1,1,0,0,0-.53-.15Z"/><path class="cls-20" d="M79.58,358.78l-.14,0a151,151,0,0,1-44.62-20.83.53.53,0,0,1-.2-.31,43.17,43.17,0,0,1-.93-7.89.51.51,0,0,1,.26-.45.5.5,0,0,1,.24-.06.57.57,0,0,1,.28.08c3.81,2.51,10,6.36,17.82,10.49l.1.08,0,0a.28.28,0,0,1,.13,0,172.6,172.6,0,0,0,35.94,14.43.5.5,0,0,1,.37.43.49.49,0,0,1-.25.5A22.33,22.33,0,0,1,86,356.5c-2,.79-4.1,1.54-6.23,2.25Z"/><path d="M34.19,329.72c3.57,2.35,9.86,6.29,17.86,10.51l.2.19.06-.05a176,176,0,0,0,36.05,14.47,22.48,22.48,0,0,1-2.58,1.2c-2.06.8-4.12,1.54-6.2,2.24a149.48,149.48,0,0,1-44.47-20.76,42.09,42.09,0,0,1-.92-7.8m0-1a.91.91,0,0,0-.48.13,1,1,0,0,0-.52.89,44,44,0,0,0,.94,8,1,1,0,0,0,.4.62,151.79,151.79,0,0,0,44.78,20.9.84.84,0,0,0,.27,0,1.12,1.12,0,0,0,.31,0c2.13-.71,4.24-1.47,6.26-2.26a23.24,23.24,0,0,0,2.69-1.25,1,1,0,0,0,.51-1,1,1,0,0,0-.74-.85,171.86,171.86,0,0,1-35.84-14.39l-.13-.05-.12-.08c-7.81-4.12-14-8-17.78-10.47a1.1,1.1,0,0,0-.55-.16Z"/><path class="cls-20" d="M65.62,345.67a.52.52,0,0,1-.21,0c-1.86-.82-3.73-1.69-5.56-2.56a.5.5,0,0,1-.27-.35.47.47,0,0,1,.1-.42c2.61-3.22,11.39-15.65,14.81-40.45a.49.49,0,0,1,.44-.43c.51-.05,1-.08,1.54-.08A15.09,15.09,0,0,1,81,302a.5.5,0,0,1,.35.54C78,329.85,68,343.11,66,345.49A.49.49,0,0,1,65.62,345.67Z"/><path d="M76.47,301.84a14.42,14.42,0,0,1,4.38.68c-3.3,27.09-13.24,40.26-15.23,42.65q-2.87-1.26-5.55-2.55c2.67-3.31,11.48-15.81,14.91-40.7a14.87,14.87,0,0,1,1.49-.08m0-1c-.53,0-1.06,0-1.59.08a1,1,0,0,0-.89.86c-3.4,24.67-12.11,37-14.7,40.21a1,1,0,0,0-.2.84,1,1,0,0,0,.54.69c1.85.88,3.72,1.74,5.58,2.57a1.15,1.15,0,0,0,.41.08,1,1,0,0,0,.77-.36c2-2.4,12.11-15.76,15.45-43.17a1,1,0,0,0-.69-1.07,15.16,15.16,0,0,0-4.68-.73Z"/><path class="cls-20" d="M90.12,354.26H90l-1.28-.32a.54.54,0,0,1-.35-.34.5.5,0,0,1,.1-.47c1.43-1.71,6.44-8.27,10.52-20.69a.51.51,0,0,1,.48-.34h0a.5.5,0,0,1,.45.43,22.55,22.55,0,0,1-9.56,21.66A.54.54,0,0,1,90.12,354.26Z"/><path d="M99.47,332.59a21.91,21.91,0,0,1-9.35,21.17l-1.27-.32c1.61-1.92,6.55-8.49,10.62-20.85m0-1a1,1,0,0,0-1,.69c-4.06,12.33-9,18.82-10.44,20.52a1,1,0,0,0,.52,1.61l.87.22.4.1a1.07,1.07,0,0,0,.25,0,1,1,0,0,0,.56-.17,23,23,0,0,0,9.78-22.14,1,1,0,0,0-.9-.86Z"/><path class="cls-20" d="M68,362l-.15,0A121.32,121.32,0,0,1,38,348a.45.45,0,0,1-.19-.22,60,60,0,0,1-2.7-8,.48.48,0,0,1,.19-.53.52.52,0,0,1,.29-.09.48.48,0,0,1,.28.08,151.37,151.37,0,0,0,41.29,19.39.49.49,0,0,1,.36.47.52.52,0,0,1-.35.49c-3,.91-6,1.73-9.08,2.43Z"/><path d="M35.6,339.65A151.85,151.85,0,0,0,77,359.1c-2.94.91-5.94,1.72-9,2.43a121.19,121.19,0,0,1-29.71-13.94,59.79,59.79,0,0,1-2.68-7.94m0-1a1,1,0,0,0-.58.18,1,1,0,0,0-.39,1.07A60.5,60.5,0,0,0,37.36,348a1.08,1.08,0,0,0,.37.45,122,122,0,0,0,30,14.06,1,1,0,0,0,.3,0,.78.78,0,0,0,.22,0c3.08-.7,6.15-1.52,9.12-2.45a1,1,0,0,0,0-1.91,151.09,151.09,0,0,1-41.15-19.32,1,1,0,0,0-.56-.17Z"/><path class="cls-20" d="M34.47,324.59a.47.47,0,0,1-.17,0A.51.51,0,0,1,34,324c.13-1,.26-1.9.42-2.72a14.93,14.93,0,0,1,5.84-9.21.52.52,0,0,1,.29-.09.5.5,0,0,1,.31.1.51.51,0,0,1,.16.59,68.86,68.86,0,0,1-6.1,11.67A.52.52,0,0,1,34.47,324.59Z"/><path d="M40.52,312.51h0m0,0a67.32,67.32,0,0,1-6.05,11.58c.11-.89.24-1.78.41-2.68a14.46,14.46,0,0,1,5.64-8.9m0-1h0a1,1,0,0,0-.6.2,15.42,15.42,0,0,0-6,9.51c-.16.83-.3,1.7-.42,2.75a1,1,0,0,0,.64,1.06,1.07,1.07,0,0,0,.35.06,1,1,0,0,0,.83-.45A67.15,67.15,0,0,0,41.42,313a.93.93,0,0,0,.11-.44,1,1,0,0,0-1-1Zm0,2h0Z"/><path class="cls-21" d="M332.35,156.25a.43.43,0,0,1-.19,0l-6.63-2.82a.51.51,0,0,1-.3-.46c0-.44.37-.66,1.73-1.47,4.91-2.92,18-10.67,8.92-26.46-6.77-11.86-9.89-25-8.78-37.13,1.32-14.28,8.51-26.51,20.82-35.36a.46.46,0,0,1,.29-.1.5.5,0,0,1,.37.17l5.22,5.86a.52.52,0,0,1,.11.45.55.55,0,0,1-.3.35c-.17.07-17,7.22-22.8,24C326.75,95,329,108.65,337.57,123.8c.36.64.77,1.31,1.19,2,4,6.7,9.59,15.87-6.07,30.32A.47.47,0,0,1,332.35,156.25Z"/><path d="M348.21,52.91l5.21,5.86S310.35,76.59,337.13,124c3.94,7,12.17,16.07-4.78,31.71l-6.62-2.82c0-1,21.66-8.81,10.59-28.18-12.38-21.67-14.83-52.62,11.89-71.84m0-1a1,1,0,0,0-.58.19c-12.43,8.94-19.7,21.29-21,35.72-1.12,12.19,2,25.48,8.84,37.42,8.78,15.37-3.95,22.94-8.75,25.79-1.47.88-2,1.17-2,1.9a1,1,0,0,0,.61.92l6.62,2.82a.91.91,0,0,0,.39.08,1,1,0,0,0,.68-.26c16-14.73,10.29-24.1,6.15-30.95-.42-.69-.82-1.35-1.18-2-8.47-15-10.73-28.54-6.71-40.19C337,66.81,353.64,59.77,353.8,59.7a1,1,0,0,0,.37-1.59L349,52.25a1,1,0,0,0-.75-.34Z"/><path class="cls-21" d="M321.34,167a.48.48,0,0,1-.43-.25c-1-1.7-2.05-3.47-3.05-5.25a.54.54,0,0,1,0-.43.47.47,0,0,1,.31-.29c4.46-1.52,16.39-6.68,30.66-21.88a.45.45,0,0,1,.36-.16l.15,0,5.28,1.62c.34.1.68.22,1,.35a.5.5,0,0,1,.3.35.48.48,0,0,1-.11.44C339,160.66,324.28,166.07,321.49,167Z"/><path d="M349.16,139.23l5.28,1.62c.33.1.66.21,1,.33-16.49,18.85-30.84,24.27-34.08,25.31-1.07-1.79-2.09-3.55-3-5.25,4.18-1.42,16.38-6.58,30.86-22m0-1a1,1,0,0,0-.73.32c-14.18,15.11-26,20.24-30.45,21.74a1,1,0,0,0-.55,1.44c1,1.78,2,3.55,3.05,5.27a1,1,0,0,0,.86.49,1,1,0,0,0,.3-.05A55.69,55.69,0,0,0,334,161.36a104.2,104.2,0,0,0,22.22-19.52,1,1,0,0,0,.22-.89,1,1,0,0,0-.61-.7l-1-.36-5.29-1.62a.92.92,0,0,0-.29,0Z"/><path class="cls-21" d="M310.69,146.89a.52.52,0,0,1-.46-.29c-.8-1.72-1.55-3.41-2.24-5a.48.48,0,0,1,0-.48l.16-.23.37-.54a.55.55,0,0,1,.24-.18,61.87,61.87,0,0,0,15.64-8.57.51.51,0,0,1,.29-.1h.06a14.26,14.26,0,0,1,2.6.54l4.51,1.38a.5.5,0,0,1,.35.38.49.49,0,0,1-.18.48c-10.73,8.86-19,11.88-21.23,12.59Z"/><path d="M324.73,132a14.74,14.74,0,0,1,2.51.52l4.52,1.39c-10.68,8.81-18.88,11.8-21.07,12.49-.95-2-1.7-3.72-2.25-5l.52-.75A62.42,62.42,0,0,0,324.73,132m0-1a1,1,0,0,0-.58.19,61.28,61.28,0,0,1-15.51,8.51,1,1,0,0,0-.49.36c-.13.19-.26.37-.38.56l-.15.22a1,1,0,0,0-.09.95c.68,1.6,1.44,3.29,2.25,5a1,1,0,0,0,.91.58.79.79,0,0,0,.3,0c2.29-.71,10.6-3.75,21.4-12.67a1,1,0,0,0,.35-1,1,1,0,0,0-.69-.76l-4.52-1.38a15,15,0,0,0-2.68-.56Z"/><path class="cls-21" d="M314,153.69a.51.51,0,0,1-.45-.27c-.92-1.82-1.82-3.66-2.68-5.46a.49.49,0,0,1,0-.41.54.54,0,0,1,.31-.28c2.37-.74,11-3.87,22-13.22a.58.58,0,0,1,.33-.12.32.32,0,0,1,.14,0l6.37,1.95a.49.49,0,0,1,.19.84c-12.85,12.05-23.19,16-26.06,16.92A.39.39,0,0,1,314,153.69Z"/><path d="M333.51,134.43l6.36,1.95c-12.8,12-23.1,15.92-25.87,16.81-1-2-1.89-3.79-2.67-5.44,2.69-.84,11.2-4,22.18-13.32m0-1a1,1,0,0,0-.65.24c-11,9.29-19.48,12.39-21.83,13.13a1,1,0,0,0-.62.55,1,1,0,0,0,0,.83c.86,1.8,1.76,3.64,2.69,5.47a1,1,0,0,0,.89.54.87.87,0,0,0,.31-.05c2.89-.92,13.32-4.9,26.24-17a1,1,0,0,0-.39-1.68l-6.36-2a1,1,0,0,0-.29,0Z"/><path class="cls-21" d="M334.57,186.27a.51.51,0,0,1-.39-.19c-1.34-1.68-2.69-3.47-4-5.3a.53.53,0,0,1-.07-.46.54.54,0,0,1,.34-.32c2.72-.79,17.14-5.75,34.09-24.89a.5.5,0,0,1,.37-.17.41.41,0,0,1,.16,0,.5.5,0,0,1,.34.43,47,47,0,0,1-.1,9.25.49.49,0,0,1-.14.3c-15.05,15.47-27.53,19.9-30.09,20.68v0a.52.52,0,0,1-.27.57A.59.59,0,0,1,334.57,186.27Z"/><path d="M364.88,155.44a46.59,46.59,0,0,1-.1,9.15c-16.69,17.16-30.17,20.64-30.33,20.68l.12.5c-1.39-1.75-2.72-3.51-4-5.29,3-.88,17.37-5.9,34.32-25m0-1a1,1,0,0,0-.74.33c-16.86,19-31.17,24-33.86,24.75a1,1,0,0,0-.53,1.55c1.34,1.84,2.7,3.63,4,5.32a1,1,0,0,0,.78.38,1,1,0,0,0,.44-.11,1,1,0,0,0,.54-.67c3.26-1.07,15.44-5.79,29.95-20.71a1,1,0,0,0,.28-.59,48,48,0,0,0,.1-9.34,1,1,0,0,0-.68-.86.89.89,0,0,0-.32-.05Z"/><path class="cls-21" d="M329.64,179.74a.44.44,0,0,1-.37-.19c-1.16-1.63-2.32-3.31-3.45-5a.46.46,0,0,1-.05-.44.47.47,0,0,1,.32-.31c4.11-1.31,18.87-7.15,35.86-27.35a.51.51,0,0,1,.38-.18h0a.52.52,0,0,1,.39.23,14.71,14.71,0,0,1,2.22,5.64c.06.39.12.78.17,1.16a.68.68,0,0,1-.11.48C347.27,174.18,331.8,179.1,330,179.63l-.08.05A.53.53,0,0,1,329.64,179.74Z"/><path d="M362.33,146.76a14.13,14.13,0,0,1,2.14,5.46c.07.4.13.81.18,1.22-18.77,21.56-34.81,25.71-35,25.76l0,.06q-1.79-2.5-3.44-5c4-1.26,18.94-7.11,36.09-27.5m0-1a1,1,0,0,0-.76.36C344.66,166.21,330,172,325.93,173.31a1,1,0,0,0-.53,1.51c1.14,1.7,2.3,3.4,3.46,5a1,1,0,0,0,.82.42,1,1,0,0,0,.41-.09,1.18,1.18,0,0,0,.19-.11c2.57-.77,17.74-6,35.13-26a1,1,0,0,0,.23-.8v-.11c-.05-.38-.11-.76-.17-1.14a15.19,15.19,0,0,0-2.29-5.84,1,1,0,0,0-.78-.45Z"/><path class="cls-21" d="M339.25,191.85a.5.5,0,0,1-.38-.17c-1.34-1.52-2.69-3.12-4-4.77a.5.5,0,0,1-.09-.47.51.51,0,0,1,.34-.33c2.24-.64,14.19-4.6,29-19.41a.48.48,0,0,1,.58-.09.51.51,0,0,1,.27.52,65.88,65.88,0,0,1-2.73,11,.53.53,0,0,1-.16.23c-12.9,10.9-22.31,13.37-22.7,13.47Z"/><path d="M364.46,167.05h0m0,0A64.57,64.57,0,0,1,361.75,178c-12.81,10.82-22.25,13.31-22.5,13.38q-2.07-2.34-4-4.76c2.45-.7,14.39-4.71,29.23-19.54m0-1h0a1,1,0,0,0-.59.23h0l-.05,0h0C349,181.07,337.18,185,335,185.63a1,1,0,0,0-.5,1.59c1.33,1.65,2.69,3.26,4,4.79a1,1,0,0,0,1,.31c.4-.1,9.9-2.59,22.91-13.58a1,1,0,0,0,.3-.45,67,67,0,0,0,2.74-11,.9.9,0,0,0,0-.23,1,1,0,0,0-1-1Zm0,2h0Z"/><path class="cls-21" d="M317.56,160.41a.49.49,0,0,1-.44-.26c-1-1.78-1.95-3.59-2.88-5.38a.51.51,0,0,1,0-.42.5.5,0,0,1,.31-.29c2.94-.94,13.57-5,26.65-17.53a.5.5,0,0,1,.35-.14l.14,0,6,1.84a.5.5,0,0,1,.34.35.53.53,0,0,1-.12.48c-14.45,15.14-26.78,20.13-30.21,21.29A.45.45,0,0,1,317.56,160.41Z"/><path d="M341.54,136.89l6,1.85c-14.29,15-26.36,19.93-30,21.17-1-1.87-2-3.67-2.87-5.37,3.32-1.07,13.83-5.18,26.85-17.65m0-1a1,1,0,0,0-.7.28c-13,12.46-23.54,16.48-26.46,17.42a1,1,0,0,0-.62.57,1,1,0,0,0,0,.84c.94,1.81,1.91,3.63,2.88,5.39a1,1,0,0,0,.88.52,1.19,1.19,0,0,0,.32,0c3.46-1.18,15.88-6.2,30.41-21.43a1,1,0,0,0,.24-.94,1,1,0,0,0-.67-.71l-6-1.84a1,1,0,0,0-.29-.05Z"/><path class="cls-21" d="M315.72,187.43a.39.39,0,0,1-.18,0l-.4-.15-1.34-.54a22.34,22.34,0,0,1-13.58-24.09.49.49,0,0,1,.42-.42h.07a.52.52,0,0,1,.46.29,122.18,122.18,0,0,0,14.94,24.15.5.5,0,0,1,0,.61A.51.51,0,0,1,315.72,187.43Z"/><path d="M300.71,162.68a123.46,123.46,0,0,0,15,24.25l-1.73-.69a21.91,21.91,0,0,1-13.28-23.56m0-1h-.14a1,1,0,0,0-.85.84,22.85,22.85,0,0,0,13.88,24.63l1.34.54.41.16a1.21,1.21,0,0,0,.37.07,1,1,0,0,0,.78-1.62,122.41,122.41,0,0,1-14.88-24.05,1,1,0,0,0-.91-.58Z"/><path class="cls-21" d="M339.13,194a22,22,0,0,1-2.87-.4c-2.12-.44-4.28-.95-6.45-1.52a.44.44,0,0,1-.25-.15,151.13,151.13,0,0,1-26-41.8.48.48,0,0,1,0-.37,43.27,43.27,0,0,1,3.52-7.12.49.49,0,0,1,.43-.23h0a.48.48,0,0,1,.42.3c1.83,4.18,4.92,10.79,9.22,18.51a.61.61,0,0,1,.05.12v0a.22.22,0,0,1,.09.1,172.57,172.57,0,0,0,22.25,31.7.49.49,0,0,1,.08.55.49.49,0,0,1-.45.28Z"/><path d="M307.48,142.88c1.71,3.91,4.83,10.65,9.23,18.55l.07.27.07,0a175.47,175.47,0,0,0,22.32,31.79,22.86,22.86,0,0,1-2.81-.39c-2.17-.45-4.3-1-6.42-1.51A149.56,149.56,0,0,1,304,149.91a42.59,42.59,0,0,1,3.49-7m0-1a1,1,0,0,0-.85.47,43.11,43.11,0,0,0-3.57,7.2,1,1,0,0,0,0,.73,151.25,151.25,0,0,0,26.12,41.95,1,1,0,0,0,.49.31c2.18.56,4.35,1.07,6.47,1.52a21.68,21.68,0,0,0,2.94.41h.08a1,1,0,0,0,.74-1.67,172.22,172.22,0,0,1-22.19-31.61l-.07-.11a.91.91,0,0,0-.07-.14c-4.29-7.7-7.36-14.29-9.19-18.46a1,1,0,0,0-.84-.6Z"/><path class="cls-21" d="M325.39,173.47a.48.48,0,0,1-.42-.23c-1.11-1.69-2.2-3.43-3.27-5.18a.52.52,0,0,1,0-.44.51.51,0,0,1,.31-.3c3.95-1.27,18.09-6.9,34.48-25.82a.52.52,0,0,1,.38-.17.59.59,0,0,1,.23,0,15,15,0,0,1,4.75,3.84.5.5,0,0,1,0,.63c-17.67,21.05-33.32,26.68-36.28,27.6Z"/><path d="M356.83,141.83a14.5,14.5,0,0,1,4.59,3.7c-17.55,20.91-33.06,26.52-36,27.44-1.14-1.74-2.23-3.47-3.26-5.17,4.05-1.31,18.25-7,34.7-26m0-1a1,1,0,0,0-.75.34c-16.31,18.83-30.35,24.41-34.26,25.68a1,1,0,0,0-.55,1.47c1.06,1.74,2.17,3.49,3.28,5.2a1,1,0,0,0,.84.45.77.77,0,0,0,.29-.05c3-.92,18.76-6.59,36.51-27.74a1,1,0,0,0,0-1.28,15.57,15.57,0,0,0-4.91-4,1,1,0,0,0-.46-.11Z"/><path class="cls-21" d="M341.23,194a.5.5,0,0,1-.36-.16s-.68-.73-.89-1a.51.51,0,0,1-.12-.47.52.52,0,0,1,.34-.34c2.14-.66,9.91-3.42,20.11-11.6a.49.49,0,0,1,.62,0,.49.49,0,0,1,.14.6A22.55,22.55,0,0,1,341.24,194Z"/><path d="M360.62,180.89h0m0,0a21.92,21.92,0,0,1-19.39,12.65l-.88-1c2.39-.74,10.12-3.55,20.27-11.69m0-1h0a1,1,0,0,0-.61.22c-10.12,8.12-17.82,10.86-19.94,11.51a1,1,0,0,0-.44,1.63c.2.22.41.44.61.67l.28.29a1,1,0,0,0,.73.33h0a23,23,0,0,0,20.25-13.17,1,1,0,0,0,.12-.48,1,1,0,0,0-1-1Zm0,2Z"/><path class="cls-21" d="M327.36,191.37l-.14,0c-3-.84-6-1.82-8.94-2.91a.45.45,0,0,1-.21-.15,121.94,121.94,0,0,1-17.37-28,.48.48,0,0,1,0-.29,59.93,59.93,0,0,1,2.1-8.19.52.52,0,0,1,.45-.34h0a.5.5,0,0,1,.46.31,152,152,0,0,0,24,38.77.5.5,0,0,1,0,.6A.53.53,0,0,1,327.36,191.37Z"/><path d="M303.24,152a151.63,151.63,0,0,0,24.12,38.91c-3-.84-5.92-1.8-8.91-2.9a121.07,121.07,0,0,1-17.29-27.89,61.18,61.18,0,0,1,2.08-8.12m0-1h0a1,1,0,0,0-.92.68,61.37,61.37,0,0,0-2.11,8.26,1,1,0,0,0,.06.58,122.08,122.08,0,0,0,17.44,28.12,1,1,0,0,0,.43.31c3,1.09,6,2.07,9,2.92a.86.86,0,0,0,.28,0,1,1,0,0,0,.84-.46,1,1,0,0,0-.09-1.19,151.07,151.07,0,0,1-23.95-38.65,1,1,0,0,0-.92-.61Z"/><path class="cls-21" d="M310.78,138.81a.51.51,0,0,1-.4-.2.5.5,0,0,1,0-.62c.67-.8,1.25-1.45,1.83-2.05a14.9,14.9,0,0,1,9.92-4.53h0a.51.51,0,0,1,.47.34.52.52,0,0,1-.19.58A67.44,67.44,0,0,1,311,138.77.45.45,0,0,1,310.78,138.81Z"/><path d="M322.18,131.9h0m0,0a66.82,66.82,0,0,1-11.4,6.41c.58-.69,1.17-1.36,1.81-2a14.45,14.45,0,0,1,9.59-4.39m0-1h-.07a15.38,15.38,0,0,0-10.24,4.68c-.58.61-1.17,1.26-1.85,2.08a1,1,0,0,0,0,1.23,1,1,0,0,0,.8.41,1.1,1.1,0,0,0,.4-.08,68.48,68.48,0,0,0,11.53-6.48,1,1,0,0,0-.53-1.85Zm0,2Z"/></svg>